<svg width="139" height="94" viewBox="0 0 139 94" fill="none" xmlns="http://www.w3.org/2000/svg">
<path fill-rule="evenodd" clip-rule="evenodd" d="M99.3249 37.8678C97.3452 41.7546 94.291 44.1664 89.8027 44.1621C85.3145 44.1579 82.2941 41.7546 80.306 37.8466H52.5432C50.5677 41.7758 47.5008 44.1664 43.0168 44.1621C38.5328 44.1579 35.5336 41.7419 33.5115 37.8254C32.3058 37.8585 31.1017 37.7158 29.937 37.4015C26.6135 36.6424 23.5834 34.9277 21.2186 32.4678C19.1278 30.2607 17.8043 27.4361 17.4453 24.4144C17.3522 23.6853 17.3141 22.9521 17.2549 22.2188C17.2445 22.0777 17.2445 21.936 17.2549 21.7949H24.5097C24.5097 21.9306 24.5477 22.0662 24.552 22.2188C24.6366 25.385 26.1129 27.6697 28.8879 29.1362C29.9321 29.7 31.0705 30.0678 32.2467 30.2213C32.3355 30.2213 32.4244 30.2552 32.5132 30.2595C33.4862 30.3188 33.4565 30.3018 33.9007 29.4117C34.5516 28.0347 35.5155 26.8296 36.7151 25.8933C37.9148 24.957 39.3168 24.3155 40.8086 24.0202C43.014 23.5148 45.3243 23.7563 47.3781 24.7069C49.5916 25.7073 51.3554 27.4958 52.3274 29.7254C52.4036 29.8865 52.467 30.0475 52.5474 30.2255H80.2763C82.1461 26.1014 85.2807 23.7956 89.845 23.804C94.4094 23.8125 97.4975 26.1183 99.4095 30.2637C101.739 30.3155 104.003 29.4896 105.755 27.9494C107.629 26.3599 108.348 24.2321 108.386 21.8034H115.552C115.584 21.8953 115.605 21.9906 115.615 22.0874C115.615 25.012 115.159 27.8477 113.822 30.4799C113.079 31.9875 112.042 33.3305 110.772 34.4291C109.502 35.5278 108.024 36.3598 106.427 36.876C104.779 37.4326 103.052 37.7189 101.313 37.7237C100.657 37.7237 99.9975 37.8127 99.3249 37.8636M99.1599 30.3485H89.2021V37.7237H99.1599V30.3485ZM33.5665 30.3485V37.7237H43.1479C43.2579 36.9946 43.2283 30.7384 43.1141 30.3527L33.5665 30.3485Z" fill="white"/>
<path fill-rule="evenodd" clip-rule="evenodd" d="M93.6819 16.4373H87.0786C87.0278 16.0134 86.9813 15.5896 86.9305 15.1657C86.8178 14.0467 86.4305 12.973 85.8031 12.0404C85.1757 11.1078 84.3278 10.3453 83.3349 9.82079C81.9833 9.02988 80.4457 8.61435 78.8805 8.61702C70.0478 8.61702 61.2194 8.61702 52.391 8.61702C51.0788 8.59746 49.7919 8.97933 48.702 9.71167C47.6121 10.444 46.771 11.492 46.291 12.7158C45.8731 13.7866 45.6358 14.9197 45.5888 16.0685C45.5888 16.1745 45.5888 16.2805 45.555 16.4203H38.9178C38.9008 16.2796 38.8909 16.1382 38.8882 15.9965C38.9855 13.5253 39.3112 11.0966 40.3814 8.83319C41.033 7.40536 41.9635 6.12285 43.118 5.06141C44.2725 3.99997 45.6276 3.18113 47.1032 2.65327C48.5398 2.1528 50.0422 1.86715 51.5618 1.80555C54.2523 1.62752 56.9384 1.73349 59.6246 1.72077C65.8345 1.69534 72.0445 1.72077 78.2375 1.72077C79.8188 1.71135 81.3933 1.93121 82.9118 2.37352C85.1665 2.99806 87.2564 4.11235 89.0329 5.63726C91.2744 7.52793 92.8054 10.128 93.3731 13.0082C93.6042 14.1361 93.7106 15.2861 93.6904 16.4373" fill="white"/>
<path fill-rule="evenodd" clip-rule="evenodd" d="M11.9925 72.6923H8.09651C8.09651 72.5185 8.05843 72.3617 8.05843 72.2049C8.05843 65.067 8.05843 57.9292 8.05843 50.7913C8.05167 50.5404 8.07726 50.2897 8.13458 50.0453C8.20976 49.6992 8.38442 49.3828 8.63699 49.135C8.88956 48.8872 9.20901 48.7189 9.55592 48.6508C9.91453 48.5539 10.2939 48.5667 10.6452 48.6875C10.9965 48.8084 11.3037 49.0318 11.5272 49.329C12.3309 50.3378 13.122 51.3593 13.9173 52.3766L22.1788 62.9223C22.6484 63.5284 23.1222 64.1303 23.5875 64.7237C23.6425 64.7237 23.6636 64.7237 23.6763 64.6898V64.6432C23.6763 64.5711 23.6763 64.499 23.6763 64.427C23.6763 59.1965 23.6763 53.9689 23.6763 48.7441C23.6744 48.7258 23.6744 48.7073 23.6763 48.689C23.6784 48.6721 23.6784 48.655 23.6763 48.6381C24.9787 48.4955 26.2914 48.4742 27.5977 48.5745C27.5977 48.7695 27.5977 48.9984 27.5977 49.1849V66.0165C27.5977 67.5424 27.5723 69.0725 27.5977 70.5984C27.5872 71.0205 27.4534 71.4302 27.2128 71.7768C26.9721 72.1233 26.6353 72.3916 26.244 72.5482C25.8394 72.6961 25.3986 72.7126 24.984 72.5955C24.5695 72.4783 24.2022 72.2334 23.9344 71.8954C22.0392 69.4158 20.1272 66.9532 18.2109 64.4863L12.1829 56.5643H12.1152L12.0814 56.5982C12.0773 56.6334 12.0773 56.669 12.0814 56.7042C12.0814 61.9884 12.0814 67.2739 12.0814 72.5609C12.0814 72.5609 12.0814 72.5948 12.0264 72.6754" fill="white"/>
<path fill-rule="evenodd" clip-rule="evenodd" d="M78.1233 53.9323L74.7857 56.005C72.9498 53.644 70.5851 52.4276 67.5944 52.6141C66.5595 52.6787 65.5478 52.9497 64.6188 53.4112C63.6897 53.8726 62.862 54.5152 62.1839 55.3013C61.465 56.1135 60.9173 57.0629 60.5739 58.0925C60.2304 59.1221 60.0983 60.2106 60.1853 61.2927C60.2724 62.3748 60.5769 63.428 61.0806 64.3892C61.5842 65.3504 62.2766 66.1996 63.1161 66.8858C63.9557 67.572 64.925 68.0811 65.9658 68.3824C67.0067 68.6837 68.0976 68.7711 69.173 68.6392C70.2484 68.5073 71.2861 68.159 72.2238 67.615C73.1614 67.0711 73.9796 66.3429 74.6292 65.474L77.8737 67.6442C75.5556 71.2089 70.399 73.697 65.0351 72.2346C62.4735 71.5369 60.2148 70.0084 58.612 67.888C57.0093 65.7677 56.1528 63.175 56.1765 60.5153C56.2002 57.8555 57.1027 55.2786 58.7429 53.1872C60.3832 51.0959 62.6688 49.608 65.2424 48.9561C70.7966 47.5531 75.9109 50.3549 78.1064 53.9238" fill="white"/>
<path fill-rule="evenodd" clip-rule="evenodd" d="M31.1892 72.5652C34.5959 64.5542 37.9801 56.5743 41.3417 48.6255H45.6353L41.4051 58.6075C41.6251 58.6075 41.7943 58.6329 41.9593 58.6329C43.6979 58.6329 45.4407 58.6329 47.1836 58.6329C47.6063 58.6114 48.0253 58.7223 48.3823 58.9501C48.7393 59.178 49.0167 59.5115 49.176 59.9045C51.0711 63.7305 52.9705 67.5566 54.8741 71.3827C55.056 71.7514 55.2294 72.1202 55.4325 72.5398H51.05C50.9654 72.3787 50.8512 72.1795 50.7496 71.9761C49.2733 69.009 47.7885 66.0674 46.3333 63.1046C46.2748 62.9314 46.1591 62.7832 46.0053 62.6846C45.8515 62.586 45.6688 62.5428 45.4873 62.5621C43.7656 62.5918 42.0397 62.5621 40.318 62.5621H39.7638L35.5336 72.5652H31.1892Z" fill="white"/>
<path fill-rule="evenodd" clip-rule="evenodd" d="M120.662 58.6328C119.232 55.2419 117.849 51.9781 116.432 48.6508C116.563 48.6268 116.696 48.6098 116.829 48.5999C117.98 48.5999 119.126 48.5999 120.277 48.5999C120.415 48.5848 120.553 48.6191 120.668 48.6967C120.782 48.7743 120.866 48.8903 120.903 49.0238C122.798 53.5224 124.703 58.0154 126.618 62.5026L130.713 72.1158C130.768 72.2472 130.814 72.3786 130.886 72.5397H126.559C125.149 69.2279 123.739 65.9091 122.329 62.5832C122.168 62.5832 122.028 62.5577 121.906 62.5577C120.112 62.5577 118.314 62.5577 116.521 62.5577C116.364 62.5419 116.207 62.5798 116.075 62.6653C115.942 62.7508 115.843 62.8788 115.793 63.0282C114.321 66.0037 112.84 68.9708 111.351 71.9293L111.047 72.5185H106.652C106.724 72.3405 106.774 72.1921 106.846 72.0523C108.865 67.9888 110.887 63.9226 112.912 59.8535C113.086 59.522 113.317 59.2236 113.593 58.9719C113.917 58.7091 114.328 58.5775 114.744 58.6031C116.538 58.6031 118.335 58.6031 120.129 58.6031L120.662 58.6328Z" fill="white"/>
<path fill-rule="evenodd" clip-rule="evenodd" d="M87.51 72.6838H83.614V48.6212C84.89 48.4868 86.1753 48.4655 87.455 48.5576C87.5777 48.9433 87.6369 71.2639 87.51 72.6838Z" fill="white"/>
<path fill-rule="evenodd" clip-rule="evenodd" d="M102.519 72.688H98.5635C98.5635 72.4803 98.5424 72.3065 98.5424 72.1327C98.5424 66.6522 98.5424 61.1759 98.5424 55.6953C98.5369 55.2008 98.7084 54.7207 99.0258 54.342C99.3432 53.9634 99.7855 53.7111 100.273 53.6311C100.539 53.5957 100.809 53.6146 101.068 53.6866C101.327 53.7586 101.568 53.8822 101.778 54.0501C101.988 54.218 102.161 54.4266 102.289 54.6634C102.416 54.9002 102.494 55.1604 102.519 55.4283C102.519 55.5173 102.519 55.6063 102.519 55.6996V72.688Z" fill="white"/>
<path d="M107.688 48.5662H93.0601V52.4742H107.688V48.5662Z" fill="white"/>
<path fill-rule="evenodd" clip-rule="evenodd" d="M52.4881 82.6192C52.4332 81.5558 52.7049 80.501 53.2665 79.597C53.6723 78.9089 54.2374 78.3286 54.914 77.9052C55.5906 77.4818 56.3589 77.2276 57.1541 77.1641C58.2782 77.0031 59.4248 77.174 60.4536 77.6557C61.2205 78.0235 61.8839 78.5768 62.3839 79.2657C62.8838 79.9547 63.2047 80.7576 63.3174 81.6019C63.5461 82.7892 63.4074 84.0181 62.9198 85.1242C62.5474 86.0211 61.9247 86.7913 61.1264 87.3424C60.328 87.8935 59.3879 88.202 58.4189 88.2311C57.241 88.3569 56.0541 88.0982 55.0347 87.4936C54.2613 87.0398 53.6201 86.3909 53.1748 85.6115C52.7295 84.8322 52.4957 83.9496 52.4966 83.0515C52.4966 82.9286 52.4966 82.8057 52.4966 82.6277M57.9028 87.2901C58.7564 87.3363 59.6034 87.1166 60.3274 86.6613C61.0515 86.2059 61.6172 85.5373 61.9469 84.747C62.3223 83.8477 62.4438 82.8624 62.298 81.8986C62.1819 80.8614 61.6928 79.902 60.922 79.1999C60.1512 78.4978 59.1516 78.101 58.1101 78.0838C56.1007 78.0415 54.6244 79.0672 53.9687 80.5465C53.5648 81.4542 53.4269 82.4582 53.5711 83.4415C53.6776 84.5084 54.1838 85.4952 54.9876 86.2031C55.7914 86.911 56.8331 87.2873 57.9028 87.2562" fill="white"/>
<path fill-rule="evenodd" clip-rule="evenodd" d="M115.632 87.9852L112.671 83.0175H110.92V87.9555H109.943C109.824 87.5825 109.799 78.0117 109.943 77.4055C110.07 77.4055 110.205 77.3843 110.345 77.3843C111.296 77.3843 112.253 77.3589 113.204 77.3843C113.68 77.3991 114.153 77.476 114.609 77.6132C116.187 78.0922 116.618 79.3553 116.423 80.7117C116.365 81.1812 116.167 81.6223 115.855 81.9781C115.544 82.3339 115.133 82.5882 114.676 82.7081C114.427 82.7886 114.169 82.8479 113.83 82.9369L116.838 87.9428C116.442 87.9792 116.043 87.9905 115.645 87.9767M110.992 78.355V81.9917C111.838 81.9917 112.646 82.0299 113.45 81.9917C113.851 81.9451 114.24 81.8228 114.596 81.6314C114.889 81.4678 115.124 81.2164 115.267 80.9123C115.411 80.6083 115.456 80.2669 115.396 79.936C115.335 79.557 115.154 79.2078 114.878 78.941C114.603 78.6742 114.249 78.5043 113.868 78.4567C112.925 78.2787 111.978 78.4016 110.992 78.3804" fill="white"/>
<path fill-rule="evenodd" clip-rule="evenodd" d="M101.136 85.1962H95.6363C95.2429 86.1117 94.8411 87.0484 94.435 87.9852H93.3267C94.8453 84.4417 96.3936 80.9491 97.9164 77.4268H99.0247L103.466 88.0233H102.274C101.884 87.0739 101.499 86.1499 101.114 85.2174M100.738 84.2721C99.9638 82.3775 99.2193 80.5676 98.4579 78.7195C97.578 80.5231 96.8053 82.3772 96.144 84.2721H100.738Z" fill="white"/>
<path fill-rule="evenodd" clip-rule="evenodd" d="M18.156 87.9683H16.9673C16.6543 87.2365 16.3567 86.5046 16.0747 85.7727C16.0305 85.6763 15.9924 85.5772 15.9605 85.476C15.9371 85.3718 15.8753 85.2803 15.7875 85.2198C15.6996 85.1593 15.5922 85.1342 15.4867 85.1497C13.7947 85.1497 12.1026 85.1497 10.3597 85.1497C9.93671 86.0822 9.55176 87.0147 9.14567 87.9556H8.03735C9.56445 84.3952 11.1 80.9026 12.6271 77.3972H13.7312C15.1906 80.8729 16.6585 84.3782 18.1644 87.9599M15.4402 84.2129L13.1136 78.6052C12.3014 80.5253 11.5273 82.3437 10.732 84.2214L15.4402 84.2129Z" fill="white"/>
<path fill-rule="evenodd" clip-rule="evenodd" d="M129.77 82.013V82.9794H124.748V87.0061C126.584 87.0061 128.433 87.0061 130.32 87.0061V87.9428H123.725C123.606 87.5698 123.581 77.9948 123.703 77.4014H130.074V78.3339H124.812C124.681 79.5534 124.67 80.7828 124.778 82.0045L129.77 82.013Z" fill="white"/>
<path fill-rule="evenodd" clip-rule="evenodd" d="M31.0074 77.4099H32.0523C32.0523 77.5922 32.0819 77.7448 32.0819 77.8974C32.0819 79.9319 32.0819 81.9678 32.0819 84.0052C32.091 84.7299 31.9603 85.4495 31.6969 86.1245C31.5414 86.5589 31.2897 86.9524 30.9608 87.2754C30.6318 87.5984 30.2342 87.8425 29.7976 87.9895C28.6892 88.3893 27.4707 88.3529 26.388 87.8878C25.6531 87.5637 25.0723 86.9665 24.7679 86.222C24.4769 85.5377 24.3328 84.7998 24.3448 84.0561C24.3237 81.9707 24.3448 79.881 24.3448 77.7914C24.3448 77.6727 24.3449 77.554 24.3702 77.4099H25.3812C25.3812 77.5964 25.4109 77.7829 25.4109 77.9694C25.4109 79.9149 25.4109 81.8647 25.4109 83.8102C25.4236 84.356 25.509 84.8977 25.6647 85.4209C26.0327 86.6671 26.8745 87.2562 28.1816 87.2605C29.5861 87.2605 30.4363 86.6332 30.8001 85.2726C30.9198 84.8315 30.9852 84.3774 30.9947 83.9204C30.9947 81.9537 30.9947 79.9912 30.9947 78.0287L31.0074 77.4099Z" fill="white"/>
<path fill-rule="evenodd" clip-rule="evenodd" d="M87.2436 85.654L88.0685 86.2813C87.8926 86.5221 87.7033 86.7528 87.5016 86.9722C86.8699 87.5976 86.0598 88.0108 85.1835 88.1548C84.4288 88.309 83.6508 88.3078 82.8966 88.1511C82.1425 87.9944 81.428 87.6856 80.7968 87.2435C80.2017 86.8112 79.7053 86.2568 79.3406 85.6174C78.9759 84.9779 78.7513 84.2679 78.6817 83.5347C78.4897 82.2866 78.7001 81.0096 79.2824 79.8895C79.6894 79.0805 80.3082 78.3975 81.0727 77.9137C81.8372 77.4299 82.7186 77.1635 83.6225 77.1429C84.4151 77.0565 85.2169 77.1537 85.9661 77.4269C86.6905 77.6999 87.3176 78.1823 87.7681 78.8129L86.9221 79.5207C86.5079 78.9034 85.889 78.453 85.175 78.2492C84.2199 77.961 83.1936 78.0228 82.2798 78.4236C81.3661 78.8243 80.6244 79.5378 80.1876 80.4363C79.8094 81.1813 79.6258 82.0101 79.6539 82.8455C79.6821 83.6808 79.921 84.4954 80.3484 85.2132C80.6912 85.837 81.1954 86.3568 81.8081 86.7178C82.4207 87.0788 83.1191 87.2677 83.8298 87.2647C84.4485 87.3142 85.0697 87.206 85.6355 86.9504C86.2013 86.6947 86.6933 86.2998 87.0659 85.8024C87.1205 85.7488 87.18 85.7006 87.2436 85.6583" fill="white"/>
<path fill-rule="evenodd" clip-rule="evenodd" d="M43.0888 78.355V87.9428H41.9974C41.9974 86.3618 41.9974 84.7723 41.9974 83.1871V78.3678H38.4229V77.4141H46.5702V78.355H43.0888Z" fill="white"/>
</svg>
