<svg width="21" height="20" viewBox="0 0 21 20" fill="none" xmlns="http://www.w3.org/2000/svg">
<path d="M13.9977 6.4002C15.4298 6.4002 16.8033 6.96912 17.816 7.98182C18.8287 8.99452 19.3977 10.368 19.3977 11.8002V18.1002H15.7977V11.8002C15.7977 11.3228 15.608 10.865 15.2704 10.5274C14.9329 10.1898 14.475 10.0002 13.9977 10.0002C13.5203 10.0002 13.0624 10.1898 12.7249 10.5274C12.3873 10.865 12.1977 11.3228 12.1977 11.8002V18.1002H8.59766V11.8002C8.59766 10.368 9.16658 8.99452 10.1793 7.98182C11.192 6.96912 12.5655 6.4002 13.9977 6.4002Z" stroke="#383638" stroke-width="2" stroke-linecap="round" stroke-linejoin="round"/>
<path d="M4.99844 7.30029H1.39844V18.1003H4.99844V7.30029Z" stroke="#383638" stroke-width="2" stroke-linecap="round" stroke-linejoin="round"/>
<path d="M3.19844 4.6C4.19255 4.6 4.99844 3.79411 4.99844 2.8C4.99844 1.80589 4.19255 1 3.19844 1C2.20432 1 1.39844 1.80589 1.39844 2.8C1.39844 3.79411 2.20432 4.6 3.19844 4.6Z" stroke="#383638" stroke-width="2" stroke-linecap="round" stroke-linejoin="round"/>
</svg>
