<svg width="115" height="92" viewBox="0 0 115 92" fill="none" xmlns="http://www.w3.org/2000/svg">
<g clip-path="url(#clip0_138_727)">
<path d="M14.5891 50.5349V65.9729L3.32429 51.3674C3.09709 51.0659 2.78109 50.8443 2.42133 50.7342C2.06158 50.624 1.67645 50.631 1.32085 50.754C0.965245 50.877 0.657329 51.1099 0.441003 51.4194C0.224676 51.7288 0.110983 52.0991 0.116134 52.4774V73.1588H3.80333V57.7938L15.1262 72.3993C15.2967 72.6224 15.5169 72.8021 15.7691 72.9239C16.0212 73.0456 16.2983 73.1061 16.5779 73.1004C16.7666 73.1027 16.954 73.068 17.1295 72.9982C17.4837 72.8746 17.7897 72.6412 18.0036 72.3315C18.2175 72.0218 18.3283 71.6518 18.3199 71.2747V50.5349H14.5891Z" fill="white"/>
<path d="M114.884 73.0712L105.405 50.6371L101.471 50.6079L110.921 73.0419L114.884 73.0712Z" fill="white"/>
<path d="M106.842 60.1454H99.8738C99.5404 60.1373 99.2113 60.2233 98.924 60.3936C98.6366 60.564 98.4024 60.812 98.2479 61.1094L92.3252 73.0275L96.3463 73.1297L101.006 63.8406H106.813C107.275 63.7994 107.706 63.5853 108.019 63.2406C108.333 62.896 108.507 62.4457 108.507 61.9784C108.507 61.5112 108.333 61.0609 108.019 60.7162C107.706 60.3715 107.275 60.1575 106.813 60.1162" fill="white"/>
<path d="M21.8618 73.0712L31.3556 50.6371L35.2896 50.6079L25.8248 73.0419L21.8618 73.0712Z" fill="white"/>
<path d="M29.9187 60.1454H36.8866C37.22 60.1373 37.5491 60.2233 37.8365 60.3936C38.1238 60.564 38.358 60.812 38.5125 61.1094L44.4352 73.0275L40.3996 73.1297L35.7543 63.8406H29.9477C29.4851 63.7994 29.0547 63.5853 28.7411 63.2406C28.4276 62.896 28.2537 62.4457 28.2537 61.9784C28.2537 61.5112 28.4276 61.0609 28.7411 60.7162C29.0547 60.3715 29.4851 60.1575 29.9477 60.1162" fill="white"/>
<path d="M74.3681 50.5496H70.6809V73.1735H74.3681V50.5496Z" fill="white"/>
<path d="M88.2461 57.1805C88.2051 56.7151 87.9924 56.282 87.6498 55.9665C87.3073 55.651 86.8597 55.4761 86.3953 55.4761C85.9309 55.4761 85.4833 55.651 85.1408 55.9665C84.7982 56.282 84.5854 56.7151 84.5444 57.1805V73.1589H88.2461V57.1805Z" fill="white"/>
<path d="M93.4719 50.5349H79.6086V54.2447H93.4719V50.5349Z" fill="white"/>
<path d="M62.4212 66.4697C61.4625 67.7484 60.1265 68.6894 58.6042 69.1582C57.082 69.627 55.4513 69.5996 53.9455 69.0799C52.4397 68.5601 51.1357 67.5747 50.22 66.2645C49.3043 64.9542 48.8238 63.3862 48.8471 61.7847C48.8704 60.1831 49.3964 58.6299 50.3499 57.3473C51.3034 56.0646 52.6355 55.118 54.1558 54.6429C55.6762 54.1678 57.3069 54.1885 58.8148 54.702C60.3228 55.2154 61.6308 56.1955 62.5518 57.5019L65.6584 55.574C64.5803 53.9627 63.1058 52.6598 61.3785 51.7923C59.6513 50.9247 57.7301 50.5221 55.8022 50.6235C53.8743 50.7249 52.0054 51.327 50.3775 52.3711C48.7496 53.4152 47.4182 54.8658 46.513 56.5814C45.6079 58.297 45.1598 60.2193 45.2124 62.1609C45.265 64.1026 45.8166 65.9974 46.8133 67.6608C47.8101 69.3243 49.218 70.6997 50.9 71.653C52.5821 72.6063 54.4808 73.105 56.4114 73.1006C58.1764 73.1097 59.9181 72.6943 61.4912 71.8889C63.0644 71.0835 64.4234 69.9116 65.4552 68.4706L62.4212 66.4697Z" fill="white"/>
<path d="M0 82.4187H1.26294V90.5832H5.5308V91.7662H0V82.4187Z" fill="white"/>
<path d="M12.5133 87.0926C12.493 86.4402 12.6062 85.7904 12.8459 85.1838C13.0857 84.5772 13.4469 84.0267 13.907 83.5665C14.3672 83.1063 14.9165 82.7461 15.5208 82.5085C16.1251 82.2709 16.7715 82.1608 17.4199 82.1852C18.7154 82.1852 19.9579 82.703 20.874 83.6247C21.7901 84.5464 22.3047 85.7965 22.3047 87.0999C22.3047 88.4034 21.7901 89.6535 20.874 90.5752C19.9579 91.4969 18.7154 92.0147 17.4199 92.0147C16.7763 92.0309 16.1362 91.9148 15.5388 91.6736C14.9413 91.4323 14.3991 91.0709 13.9452 90.6115C13.4914 90.1522 13.1354 89.6044 12.8992 89.0019C12.663 88.3994 12.5514 87.7547 12.5714 87.1072M20.9184 87.1072C20.8843 86.4161 20.6493 85.7502 20.2425 85.1921C19.8357 84.6341 19.275 84.2085 18.63 83.9681C17.985 83.7277 17.2841 83.6831 16.6141 83.8398C15.9442 83.9965 15.3347 84.3477 14.8613 84.8497C14.3879 85.3517 14.0713 85.9825 13.9509 86.6639C13.8305 87.3453 13.9116 88.0472 14.1841 88.6826C14.4565 89.318 14.9084 89.859 15.4836 90.2384C16.0588 90.6179 16.7321 90.8191 17.4199 90.817C17.8969 90.8179 18.3691 90.7205 18.8074 90.531C19.2456 90.3414 19.6408 90.0637 19.9684 89.7149C20.2961 89.366 20.5494 88.9535 20.7128 88.5025C20.8761 88.0516 20.9461 87.5718 20.9184 87.0926" fill="white"/>
<path d="M38.2075 86.5376V91.1529C37.1243 91.725 35.918 92.0209 34.6945 92.0146C33.4009 92.0321 32.1534 91.5317 31.2265 90.6237C30.2995 89.7157 29.769 88.4744 29.7517 87.1729C29.7343 85.8714 30.2316 84.6162 31.1341 83.6836C32.0365 82.7509 33.2703 82.2172 34.5639 82.1997C35.1922 82.1452 35.8248 82.2251 36.4203 82.434C37.0157 82.6429 37.5605 82.9762 38.0188 83.412L37.1333 84.376C36.6165 83.8803 35.965 83.5505 35.2614 83.4284C34.5578 83.3063 33.8341 83.3974 33.1821 83.6901C32.5301 83.9829 31.9794 84.4641 31.5999 85.0725C31.2204 85.6809 31.0293 86.3892 31.0509 87.1072C31.0352 87.5931 31.1173 88.0773 31.2923 88.5305C31.4673 88.9837 31.7316 89.3967 32.0692 89.7445C32.4068 90.0924 32.8108 90.368 33.257 90.5548C33.7032 90.7416 34.1823 90.8358 34.6655 90.8316C35.4523 90.8533 36.2331 90.6882 36.9446 90.3496V87.7352H34.8397V86.5376H38.2075Z" fill="white"/>
<path d="M48.0498 82.4187H46.7869V91.7662H48.0498V82.4187Z" fill="white"/>
<path d="M57.0064 89.8092C57.2219 90.13 57.5147 90.3906 57.8574 90.5668C58.2 90.7431 58.5815 90.8291 58.9661 90.8169C59.4161 90.8534 59.8622 90.7097 60.2074 90.4171C60.5527 90.1244 60.7691 89.7065 60.8097 89.2542C60.8097 87.1072 56.237 88.4363 56.237 84.8725C56.2638 84.4891 56.3677 84.1152 56.5426 83.7735C56.7175 83.4319 56.9596 83.1295 57.2543 82.885C57.549 82.6404 57.89 82.4587 58.2567 82.351C58.6233 82.2432 59.0079 82.2116 59.3871 82.2581C59.8842 82.2135 60.3847 82.2867 60.8486 82.4719C61.3124 82.6571 61.7267 82.949 62.0582 83.3243L61.042 84.2591C60.8531 83.9975 60.6037 83.7864 60.3153 83.6438C60.0269 83.5013 59.7083 83.4317 59.3871 83.4412C57.9355 83.4412 57.5726 84.2883 57.5726 84.9017C57.5726 87.2678 62.1598 85.8511 62.1598 89.2103C62.1625 89.6239 62.0779 90.0334 61.9116 90.4116C61.7453 90.7898 61.501 91.1282 61.195 91.4044C60.889 91.6805 60.5282 91.8881 60.1364 92.0135C59.7447 92.1388 59.3309 92.179 58.9226 92.1314C58.373 92.1567 57.8249 92.0539 57.3213 91.8309C56.8177 91.608 56.3721 91.2709 56.0193 90.8462L57.0064 89.8092Z" fill="white"/>
<path d="M72.2487 83.6164H69.2583V82.4187H76.4875V83.6164H73.4971V91.7662H72.2487V83.6164Z" fill="white"/>
<path d="M85.3862 82.4187H84.1233V91.7662H85.3862V82.4187Z" fill="white"/>
<path d="M100.512 84.4344C100.241 84.102 99.8997 83.834 99.5132 83.6497C99.1268 83.4654 98.7046 83.3693 98.2769 83.3682C97.7964 83.3728 97.322 83.4766 96.8829 83.6731C96.4439 83.8696 96.0496 84.1546 95.7244 84.5105C95.3992 84.8665 95.1501 85.2857 94.9923 85.7424C94.8346 86.1991 94.7717 86.6835 94.8075 87.1656C94.7795 87.6389 94.8488 88.1129 95.0111 88.5579C95.1735 89.003 95.4253 89.4096 95.751 89.7523C96.0766 90.095 96.469 90.3665 96.9036 90.5496C97.3382 90.7328 97.8057 90.8238 98.2769 90.817C98.7523 90.8233 99.222 90.7121 99.6447 90.4931C100.067 90.2741 100.43 89.954 100.701 89.5609L101.761 90.3642C101.342 90.8936 100.807 91.3181 100.197 91.6044C99.5875 91.8908 98.9204 92.0312 98.2479 92.0146C97.6188 92.0127 96.9962 91.8861 96.4157 91.6422C95.8353 91.3982 95.3082 91.0415 94.8648 90.5926C94.4213 90.1437 94.07 89.6113 93.831 89.0258C93.5921 88.4403 93.47 87.8132 93.4719 87.1802C93.4374 86.5257 93.5384 85.8711 93.7685 85.258C93.9986 84.6448 94.3528 84.0864 94.8086 83.6182C95.2644 83.1499 95.812 82.7821 96.4165 82.5379C97.021 82.2937 97.6694 82.1786 98.3205 82.1997C98.9367 82.1821 99.5489 82.3043 100.112 82.5571C100.675 82.8099 101.174 83.187 101.572 83.6603L100.512 84.4344Z" fill="white"/>
<path d="M109.847 89.8092C110.066 90.1292 110.362 90.389 110.707 90.5649C111.051 90.7409 111.434 90.8275 111.821 90.8169C112.271 90.8534 112.717 90.7097 113.062 90.4171C113.407 90.1244 113.624 89.7065 113.664 89.2542C113.664 87.1072 109.092 88.4363 109.092 84.8725C109.119 84.4891 109.222 84.1152 109.397 83.7735C109.572 83.4319 109.814 83.1295 110.109 82.885C110.404 82.6404 110.745 82.4587 111.111 82.351C111.478 82.2432 111.863 82.2116 112.242 82.2581C112.739 82.2135 113.239 82.2867 113.703 82.4719C114.167 82.6571 114.581 82.949 114.913 83.3243L113.882 84.2591C113.697 83.9978 113.45 83.7865 113.164 83.6438C112.878 83.5012 112.561 83.4316 112.242 83.4412C110.79 83.4412 110.427 84.2883 110.427 84.9017C110.427 87.2678 115 85.8511 115 89.2103C114.986 89.6126 114.89 90.0078 114.718 90.3709C114.545 90.7341 114.3 91.0575 113.998 91.3208C113.695 91.5841 113.342 91.7817 112.959 91.9011C112.577 92.0205 112.175 92.0591 111.777 92.0146C111.228 92.0399 110.68 91.937 110.176 91.7141C109.672 91.4911 109.227 91.1541 108.874 90.7293L109.847 89.8092Z" fill="white"/>
<path d="M71.5664 0H64.2065V25.7057H71.5664V0Z" fill="white"/>
<path d="M62.0437 0H54.6838V25.7057H62.0437V0Z" fill="white"/>
<path d="M52.5064 0H45.1465V25.7057H52.5064V0Z" fill="white"/>
<path d="M42.5479 0H35.188V25.7057H42.5479V0Z" fill="white"/>
<path d="M33.0252 0H25.6653V25.7057H33.0252V0Z" fill="white"/>
<path d="M91.4978 8.71948H74.6006V25.7203H91.4978V8.71948Z" fill="white"/>
<path d="M96.9995 25.4721C96.8544 31.6356 92.9785 33.5927 90.0026 33.5927L25.6072 33.4321C24.533 33.4321 17.957 32.176 17.9715 25.4721V25.3552H11.2358C11.2358 25.3552 11.2358 25.5159 11.2358 25.5597C11.2358 36.1779 20.3087 39.9753 25.1282 40.4573L90.4526 40.6472C95.9108 40.6472 103.721 37.2587 103.75 25.6912V25.5743L96.9995 25.4721Z" fill="white"/>
<path d="M25.375 36.6013C25.375 39.2509 26.4211 41.7919 28.2832 43.6654C30.1453 45.5389 32.6709 46.5915 35.3043 46.5915C37.9377 46.5915 40.4633 45.5389 42.3254 43.6654C44.1875 41.7919 45.2336 39.2509 45.2336 36.6013H25.375Z" fill="white"/>
<path d="M69.5198 36.6013C69.5198 39.2509 70.5659 41.7919 72.428 43.6654C74.2901 45.5389 76.8157 46.5915 79.4491 46.5915C82.0825 46.5915 84.6081 45.5389 86.4702 43.6654C88.3323 41.7919 89.3784 39.2509 89.3784 36.6013H69.5198Z" fill="white"/>
</g>
<defs>
<clipPath id="clip0_138_727">
<rect width="115" height="92" fill="white"/>
</clipPath>
</defs>
</svg>
