<svg width="75" height="50" viewBox="0 0 75 50" fill="none" xmlns="http://www.w3.org/2000/svg">
<g clip-path="url(#clip0_138_984)">
<path d="M59.632 22.9119C59.5642 26.717 57.2253 27.7197 55.448 27.7197H12.1768C11.5303 27.7197 7.57634 26.978 7.57634 22.9892C7.57634 22.9602 7.57634 22.9143 7.57634 22.9143H3.50854C3.50854 22.9143 3.50854 23.0568 3.50854 23.0834C3.50854 29.4084 9.18167 31.8438 12.0751 32.1216C12.0098 32.1216 12.1381 32.1216 12.0751 32.1216L55.7434 32.0467C59.0243 32.0467 63.7119 29.9375 63.7119 23.0447V22.9119H59.632Z" fill="#BA8748"/>
<path d="M50.862 0.684814H15.5303C19.8233 6.48318 20.3971 16.5892 15.5303 22.9119H50.862C54.6925 20.0127 56.6029 5.913 50.862 0.684814Z" fill="#BA8748"/>
<path d="M9.54479 35.3928V45.3563L2.12833 35.8639C1.97581 35.6701 1.76667 35.5283 1.52985 35.4582C1.29302 35.3882 1.04023 35.3933 0.80646 35.4729C0.572689 35.5525 0.3695 35.7027 0.225016 35.9026C0.0805322 36.1025 0.00189897 36.3423 0 36.5887L0 49.9757H2.38499V40.0653L9.8063 49.5577C9.95881 49.7516 10.168 49.8934 10.4048 49.9634C10.6416 50.0335 10.8944 50.0284 11.1282 49.9488C11.3619 49.8691 11.5651 49.719 11.7096 49.5191C11.8541 49.3192 11.9327 49.0794 11.9346 48.8329V35.4146L9.54479 35.3928Z" fill="#415865"/>
<path d="M14.2275 49.9613L20.4333 35.4001L23.0048 35.376L16.8232 49.9419L14.2275 49.9613Z" fill="#415865"/>
<path d="M19.4963 41.5149H24.5519C24.7731 41.5152 24.9898 41.5768 25.1779 41.6928C25.3661 41.8089 25.5182 41.9748 25.6173 42.172L29.0071 49.9418L26.3679 49.966L23.8183 43.8874H19.4987C19.1923 43.8736 18.9031 43.7424 18.6912 43.5213C18.4793 43.3001 18.3611 43.0059 18.3611 42.6999C18.3611 42.3939 18.4793 42.0997 18.6912 41.8786C18.9031 41.6574 19.1923 41.5262 19.4987 41.5125" fill="#415865"/>
<path d="M75 49.9347L68.7821 35.376L66.2107 35.3567L72.4044 49.913L75 49.9347Z" fill="#415865"/>
<path d="M69.7336 41.4907H64.6707C64.4498 41.4911 64.2334 41.5524 64.0453 41.668C63.8573 41.7836 63.705 41.9488 63.6053 42.1455L60.2324 49.9177L62.8668 49.9418L65.4068 43.8656H69.7336C70.0489 43.8656 70.3513 43.7407 70.5743 43.5182C70.7972 43.2957 70.9225 42.994 70.9225 42.6794C70.9225 42.3648 70.7972 42.063 70.5743 41.8406C70.3513 41.6181 70.0489 41.4931 69.7336 41.4931" fill="#415865"/>
<path d="M48.5352 35.376H46.155V49.9323H48.5352V35.376Z" fill="#415865"/>
<path d="M57.7144 39.6281C57.7144 39.3135 57.5891 39.0118 57.3662 38.7893C57.1432 38.5669 56.8408 38.4419 56.5255 38.4419C56.2102 38.4419 55.9078 38.5669 55.6849 38.7893C55.4619 39.0118 55.3367 39.3135 55.3367 39.6281V49.9178H57.7192L57.7144 39.6281Z" fill="#415865"/>
<path d="M61.3535 35.3855H51.6514V37.7604H61.3535V35.3855Z" fill="#415865"/>
<path d="M40.7409 45.6656C40.2335 46.3323 39.5639 46.8589 38.7956 47.1954C38.0273 47.5319 37.1856 47.6673 36.3502 47.5887C35.5149 47.5102 34.7134 47.2202 34.0216 46.7464C33.3299 46.2725 32.7707 45.6304 32.397 44.8808C32.0233 44.1312 31.8475 43.2988 31.8861 42.4625C31.9248 41.6261 32.1766 40.8135 32.6178 40.1013C33.059 39.3892 33.675 38.8011 34.4075 38.3928C35.14 37.9844 35.9648 37.7693 36.8039 37.7677C37.5914 37.7698 38.3671 37.9588 39.0669 38.3193C39.7667 38.6798 40.3704 39.2012 40.8281 39.8406L42.8596 38.5892C42.1512 37.5486 41.1851 36.7084 40.0553 36.1503C38.9254 35.5922 37.6701 35.335 36.4113 35.4037C35.1524 35.4725 33.9328 35.8648 32.8707 36.5426C31.8087 37.2205 30.9403 38.1608 30.3499 39.2723C29.7595 40.3838 29.4671 41.6287 29.5012 42.8863C29.5353 44.1438 29.8946 45.3711 30.5443 46.4492C31.194 47.5272 32.1121 48.4194 33.2093 49.039C34.3065 49.6586 35.5456 49.9846 36.8063 49.9854C37.9602 49.9904 39.0986 49.7203 40.1267 49.1976C41.1548 48.6748 42.0428 47.9144 42.7167 46.9799L40.7409 45.6656Z" fill="#415865"/>
</g>
<defs>
<clipPath id="clip0_138_984">
<rect width="75" height="49.3151" fill="white" transform="translate(0 0.684814)"/>
</clipPath>
</defs>
</svg>
