<svg width="144" height="54" viewBox="0 0 144 54" fill="none" xmlns="http://www.w3.org/2000/svg">
<g clip-path="url(#clip0_131_157)">
<path d="M54.189 26.1251V45.9871C54.1895 46.2037 54.1469 46.4182 54.0636 46.6184C53.9803 46.8186 53.858 47.0005 53.7037 47.1536C53.5494 47.3067 53.3661 47.4281 53.1644 47.5108C52.9628 47.5934 52.7466 47.6358 52.5284 47.6353H2.09873C1.82329 47.6358 1.55046 47.5823 1.29585 47.478C1.04124 47.3737 0.80985 47.2206 0.614919 47.0275C0.419987 46.8343 0.26534 46.6049 0.159825 46.3524C0.0543104 46.0999 -3.91643e-07 45.8292 0 45.5558L0 26.1251C0 11.2951 11.7656 0 27.0963 0C42.4269 0 54.189 11.2951 54.189 26.1251ZM11.9211 26.1251V33.7557C11.9211 34.177 12.0897 34.5811 12.3899 34.879C12.69 35.1769 13.0971 35.3442 13.5216 35.3442H40.7875C41.1799 35.3433 41.5559 35.1882 41.8333 34.9129C42.1107 34.6375 42.267 34.2643 42.2679 33.8749V26.1251C42.2679 17.6704 36.3851 11.8317 27.0963 11.8317C17.8074 11.8317 11.9211 17.6704 11.9211 26.1251Z" fill="#E5B254"/>
<path d="M76.8016 11.9579V20.5143H72.5865V12.5715C72.5865 10.8427 71.4912 10.0327 70.1415 10.0327C68.5975 10.0327 67.5304 10.9269 67.5304 12.9047V20.5143H63.3188V6.57854H67.5304V7.88655C68.2901 6.85557 69.6928 6.18579 71.5477 6.18579C74.3849 6.18579 76.8016 8.19514 76.8016 11.9579Z" fill="white"/>
<path d="M94.1004 6.57872V20.5144H89.8852V19.2064C88.9595 20.2584 87.5816 20.9072 85.7019 20.9072C82.0203 20.9072 78.9888 17.6985 78.9888 13.5431C78.9888 9.3876 82.0203 6.17896 85.7019 6.17896C87.5816 6.17896 88.9595 6.82068 89.8852 7.87971V6.57872H94.1004ZM89.8852 13.5466C89.8852 11.4425 88.4719 10.1451 86.5428 10.1451C84.6137 10.1451 83.2004 11.4566 83.2004 13.5466C83.2004 15.6366 84.6137 16.9481 86.5428 16.9481C88.4719 16.9481 89.8852 15.6366 89.8852 13.5466Z" fill="white"/>
<path d="M96.4817 13.5464C96.4822 11.9365 97.0143 10.3711 97.9964 9.08991C98.9784 7.80867 100.357 6.88214 101.92 6.45214C103.483 6.02213 105.145 6.11233 106.651 6.70895C108.158 7.30556 109.426 8.37571 110.261 9.75559L106.58 11.8596C106.324 11.3736 105.934 10.97 105.455 10.6962C104.976 10.4223 104.429 10.2894 103.877 10.3132C102.05 10.3132 100.697 11.6212 100.697 13.5464C100.697 15.4715 102.043 16.7795 103.877 16.7795C105.113 16.7795 106.152 16.1939 106.601 15.2191L110.282 17.3231C109.645 18.4341 108.719 19.3544 107.6 19.9875C106.481 20.6205 105.211 20.943 103.923 20.921C102.94 20.943 101.964 20.7673 101.052 20.4047C100.14 20.042 99.3109 19.4997 98.6156 18.8106C97.9203 18.1216 97.3728 17.2999 97.006 16.3952C96.6393 15.4904 96.461 14.5213 96.4817 13.5464Z" fill="white"/>
<path d="M111.537 2.8404C111.537 2.17449 111.803 1.53586 112.278 1.06499C112.752 0.594121 113.396 0.32959 114.067 0.32959C114.737 0.32959 115.381 0.594121 115.855 1.06499C116.33 1.53586 116.596 2.17449 116.596 2.8404C116.609 3.17779 116.553 3.51425 116.432 3.82967C116.31 4.1451 116.126 4.43299 115.89 4.67615C115.654 4.9193 115.371 5.11272 115.058 5.24483C114.745 5.37694 114.408 5.44503 114.068 5.44503C113.728 5.44503 113.391 5.37694 113.078 5.24483C112.765 5.11272 112.482 4.9193 112.246 4.67615C112.01 4.43299 111.826 4.1451 111.705 3.82967C111.584 3.51425 111.528 3.17779 111.54 2.8404H111.537ZM111.957 6.57857H116.169V20.5143H111.957V6.57857Z" fill="white"/>
<path d="M124.596 10.5902V15.5242C124.596 16.7235 125.634 16.8357 127.489 16.7235V20.5142C121.985 21.0718 120.384 19.4271 120.384 15.5242V10.5902H118.137V6.57852H120.384V3.92744L124.596 2.67554V6.57852H127.489V10.5902H124.596Z" fill="white"/>
<path d="M144 6.57872V20.5144H139.788V19.2064C138.863 20.2584 137.485 20.9072 135.605 20.9072C131.923 20.9072 128.892 17.6985 128.892 13.5431C128.892 9.3876 131.923 6.17896 135.605 6.17896C137.485 6.17896 138.863 6.82068 139.788 7.87971V6.57872H144ZM139.788 13.5466C139.788 11.4425 138.375 10.1451 136.446 10.1451C134.517 10.1451 133.104 11.4566 133.104 13.5466C133.104 15.6366 134.517 16.9481 136.446 16.9481C138.375 16.9481 139.788 15.6366 139.788 13.5466Z" fill="white"/>
<path d="M77.7308 28.2397V47.7546H73.5122V46.4431C72.5865 47.4952 71.2085 48.1439 69.3288 48.1439C65.6508 48.1439 62.6157 44.9388 62.6157 40.7798C62.6157 36.6208 65.6508 33.4157 69.3288 33.4157C71.2085 33.4157 72.5865 34.0574 73.5122 35.1164V28.2397H77.7308ZM73.5157 40.7868C73.5157 38.6828 72.1024 37.3853 70.1733 37.3853C68.2441 37.3853 66.8344 38.6933 66.8344 40.7868C66.8344 42.8803 68.2477 44.1848 70.1733 44.1848C72.0989 44.1848 73.5122 42.8768 73.5122 40.7868H73.5157Z" fill="white"/>
<path d="M89.2386 33.5383V38.2759C87.4967 37.9989 85.027 38.6932 85.027 41.453V47.7651H80.8119V33.8154H85.027V36.2981C85.5888 34.429 87.4685 33.5383 89.2386 33.5383Z" fill="white"/>
<path d="M90.7826 30.0807C90.7819 29.5838 90.9298 29.0979 91.2075 28.6845C91.4852 28.271 91.8802 27.9487 92.3426 27.7582C92.805 27.5677 93.314 27.5177 93.805 27.6145C94.2961 27.7112 94.7472 27.9505 95.1012 28.3018C95.4552 28.6532 95.6962 29.1009 95.7937 29.5882C95.8912 30.0756 95.8408 30.5807 95.6489 31.0397C95.457 31.4986 95.1322 31.8907 94.7157 32.1663C94.2991 32.442 93.8095 32.5887 93.3088 32.588C92.6411 32.5807 92.0028 32.3142 91.5306 31.8456C91.0585 31.377 90.7899 30.7434 90.7826 30.0807ZM91.203 33.8154H95.4182V47.7546H91.203V33.8154Z" fill="white"/>
<path d="M112.127 33.8154L106.929 47.7546H102.156L96.9587 33.8154H101.623L104.545 42.6524L107.467 33.8154H112.127Z" fill="white"/>
<path d="M120.243 44.4092C120.74 44.4249 121.236 44.3397 121.7 44.1588C122.163 43.9779 122.585 43.7052 122.938 43.3571L126.309 45.2788C124.935 47.176 122.854 48.1508 120.186 48.1508C115.384 48.1508 112.413 44.9457 112.413 40.7867C112.413 36.6278 115.448 33.4226 119.886 33.4226C123.984 33.4226 127.019 36.5787 127.019 40.7867C127.022 41.3475 126.965 41.9069 126.85 42.4559H116.872C117.405 43.9077 118.716 44.4092 120.243 44.4092ZM122.825 39.3349C122.377 37.7183 121.112 37.1327 119.85 37.1327C118.25 37.1327 117.179 37.9147 116.787 39.3349H122.825Z" fill="white"/>
<path d="M127.991 45.4961C127.99 44.9717 128.146 44.4588 128.439 44.0223C128.732 43.5859 129.149 43.2456 129.637 43.0444C130.125 42.8432 130.663 42.7902 131.181 42.8921C131.699 42.994 132.176 43.2462 132.55 43.6168C132.924 43.9874 133.178 44.4598 133.282 44.9741C133.385 45.4885 133.332 46.0217 133.13 46.5063C132.928 46.991 132.586 47.4052 132.146 47.6967C131.707 47.9881 131.191 48.1437 130.662 48.1437C129.955 48.14 129.279 47.86 128.779 47.3644C128.279 46.8688 127.996 46.1975 127.991 45.4961Z" fill="white"/>
<path d="M45.2606 47.7546C45.144 49.7745 44.508 51.6646 42.6566 52.927C39.6428 54.9749 34.1345 54.2455 32.9933 49.4203C32.3997 46.9095 32.7813 44.6056 34.7599 42.8452C36.7385 41.0848 39.1693 40.8919 41.5931 41.8388C43.9003 42.7365 44.985 44.602 45.1935 47.0042C45.2253 47.2181 45.2253 47.432 45.2606 47.7546Z" fill="white"/>
<path d="M22.0579 47.6915C22.0014 50.9212 20.1323 53.3373 17.1432 53.8598C13.7513 54.4525 10.6386 52.8078 9.78705 49.3326C9.01681 46.1766 10.3559 43.0205 13.1613 41.8353C16.2246 40.5518 20.8072 41.4846 21.8671 45.882C22.0081 46.4747 22.0722 47.0827 22.0579 47.6915Z" fill="white"/>
</g>
<defs>
<clipPath id="clip0_131_157">
<path d="M0 0H144V44C144 49.5228 139.523 54 134 54H10C4.47715 54 0 49.5228 0 44V0Z" fill="white"/>
</clipPath>
</defs>
</svg>
